<svg width="169px" height="169px" viewBox="0 0 169 169" version="1.1" xmlns="http://www.w3.org/2000/svg" xmlns:xlink="http://www.w3.org/1999/xlink" xml:space="preserve" xmlns:serif="http://www.serif.com/" style="fill-rule:evenodd;clip-rule:evenodd;stroke-linejoin:round;stroke-miterlimit:2;">
    <g transform="matrix(2.64062,0,0,2.64062,0,0)">
        <rect x="0" y="0" width="64" height="64" style="fill:rgb(47,60,126);"/>
        <g transform="matrix(0.276476,0,0,0.276476,14.1659,10.488)">
            <path d="M88.399,37.892L88.399,81.762C88.399,86.672 83.778,90.906 76.309,93.778C63.759,98.603 44.82,99.292 30.446,95.845L34.475,91.817C47.49,94.285 63.843,93.451 74.602,89.316C80.161,87.179 83.598,84.491 83.598,81.761L83.598,68.698C83.599,68.697 83.601,68.696 83.602,68.695L83.598,68.695L83.598,47.526C83.599,47.525 83.598,47.523 83.598,47.523C83.598,47.523 83.299,46.575 83.299,43.949L88.399,37.892Z" style="fill:rgb(251,234,235);fill-opacity:0.3;"/>
        </g>
        <g transform="matrix(0.467741,0,0,0.467741,8.6141,8.61226)">
            <path d="M20.84,67.432L20.813,67.404L73.385,15.039L74.489,16.147L74.526,16.11C74.675,16.282 74.823,16.455 74.97,16.629L75.385,17.047L75.346,17.085C79.719,22.468 82.64,29.067 83.48,36.258C83.91,39.941 83.809,43.636 83.184,47.242C83.125,47.566 83.184,47.886 83.348,48.144L90.965,61.16C91.633,62.297 91.668,63.676 91.051,64.848C90.438,66.02 89.281,66.774 87.965,66.871L81.813,67.32L81.813,76.707C81.813,80.477 78.746,83.543 74.977,83.543L65.004,83.543L65.004,95.313C65.004,96.176 64.305,96.875 63.442,96.875L22.398,96.875C21.535,96.875 20.836,96.176 20.836,95.313L20.836,67.432L20.84,67.432ZM73.127,19.295L23.961,68.268L23.961,93.751L61.883,93.751L61.883,81.981C61.883,81.118 62.582,80.419 63.445,80.419L74.98,80.419C77.027,80.419 78.691,78.755 78.691,76.708L78.691,65.868C78.691,65.051 79.324,64.372 80.14,64.309L87.738,63.755C88.066,63.731 88.223,63.52 88.289,63.395C88.355,63.27 88.437,63.02 88.273,62.739L80.691,49.778C80.137,48.915 79.918,47.805 80.109,46.704C80.687,43.395 80.777,40.004 80.383,36.622C79.625,30.14 77.024,24.183 73.127,19.295Z" style="fill:rgb(251,234,235);"/>
        </g>
        <g transform="matrix(0.275455,-2.57908e-17,2.57908e-17,0.275455,14.1977,10.6237)">
            <path d="M31.163,96.013C28.503,95.406 25.991,94.661 23.692,93.778C16.223,90.907 11.602,86.676 11.602,81.762L11.602,18.239C11.602,13.328 16.223,9.094 23.692,6.223C30.477,3.613 39.782,2 50.001,2C60.22,2 69.523,3.613 76.309,6.223C83.778,9.094 88.399,13.324 88.399,18.239L88.399,38.777L75.389,51.787C57.95,58.081 28.35,56.66 16.403,47.523L16.403,60.589C16.403,63.32 19.841,66.007 25.399,68.144C33.475,71.247 44.7,72.491 55.301,71.876L50.367,76.809C36.983,76.859 23.542,74.155 16.403,68.695L16.403,81.761C16.403,84.492 19.841,87.179 25.399,89.316C28.321,90.439 31.655,91.318 35.222,91.954L31.163,96.013ZM83.598,26.35C69.447,37.167 30.55,37.166 16.403,26.347L16.403,39.413C16.403,42.144 19.841,44.831 25.399,46.968C38.876,52.147 61.126,52.147 74.602,46.968C80.161,44.831 83.598,42.144 83.598,39.413L83.598,26.35ZM83.598,26.35C83.599,26.349 83.601,26.348 83.602,26.347L83.598,26.347L83.598,26.35ZM74.602,10.683C61.125,5.503 38.875,5.503 25.399,10.683C13.426,15.285 13.422,21.187 25.399,25.792C38.879,30.972 61.126,30.972 74.602,25.792C86.579,21.19 86.579,15.284 74.602,10.683Z" style="fill:rgb(251,234,235);fill-opacity:0.7;"/>
        </g>
    </g>
</svg>
